<svg width="256" height="240" fill="none" xmlns="http://www.w3.org/2000/svg"><g clip-path="url(#a)"><path fill="#fff" d="M0 0h256v240H0z"/><g filter="url(#b)"><path fill="#D9D9D9" d="M0 0h256v240H0z"/></g><path d="M172 35S48 158 131 186c83 29 91-6 69-67-22-62-16-80-69-75-52 4-71 38-71 75 1 37 25 52 64 51 39 0 61-22 60-51-1-30-21-46-47-47-25-1-56 17-56 47 0 29 12 32 43 29s39-11 39-29-6-25-26-25-32 4-36 25c-3 20 9 18 23 11 13-7 17-11 17-11" stroke="#000"/></g><defs><clipPath id="a"><path fill="#fff" d="M0 0h256v240H0z"/></clipPath><filter id="b" x="-4" y="0" width="264" height="248" filterUnits="userSpaceOnUse" color-interpolation-filters="sRGB"><feFlood flood-opacity="0" result="BackgroundImageFix"/><feColorMatrix in="SourceAlpha" values="0 0 0 0 0 0 0 0 0 0 0 0 0 0 0 0 0 0 127 0" result="hardAlpha"/><feOffset dy="4"/><feGaussianBlur stdDeviation="2"/><feComposite in2="hardAlpha" operator="out"/><feColorMatrix values="0 0 0 0 0 0 0 0 0 0 0 0 0 0 0 0 0 0 0.25 0"/><feBlend in2="BackgroundImageFix" result="effect1_dropShadow_375_139"/><feBlend in="SourceGraphic" in2="effect1_dropShadow_375_139" result="shape"/></filter></defs></svg>