<svg width="256" height="240" fill="none" xmlns="http://www.w3.org/2000/svg"><g clip-path="url(#a)"><path fill="#fff" d="M0 0h256v240H0z"/><g filter="url(#b)"><path fill="#D9D9D9" d="M0 0h256v240H0z"/></g><path d="M127 120V43c0-77 99 8 99 77 0 70-35 102-99 102S22 181 22 120s32-84 84-84 85 32 85 84c0 53-28 62-64 62-35 0-68-18-68-62 0-43 25-47 47-47 21 0 48 24 48 47 0 24-7 28-27 28s0-14 0-28Z" stroke="#000"/></g><defs><clipPath id="a"><path fill="#fff" d="M0 0h256v240H0z"/></clipPath><filter id="b" x="-4" y="0" width="264" height="248" filterUnits="userSpaceOnUse" color-interpolation-filters="sRGB"><feFlood flood-opacity="0" result="BackgroundImageFix"/><feColorMatrix in="SourceAlpha" values="0 0 0 0 0 0 0 0 0 0 0 0 0 0 0 0 0 0 127 0" result="hardAlpha"/><feOffset dy="4"/><feGaussianBlur stdDeviation="2"/><feComposite in2="hardAlpha" operator="out"/><feColorMatrix values="0 0 0 0 0 0 0 0 0 0 0 0 0 0 0 0 0 0 0.25 0"/><feBlend in2="BackgroundImageFix" result="effect1_dropShadow_375_139"/><feBlend in="SourceGraphic" in2="effect1_dropShadow_375_139" result="shape"/></filter></defs></svg>